# xmcd
#
# Track frame offsets:
#	150
#	16932
#	33245
#	50935
#	69098
#	86414
#	98539
#	114900
#	129124
#	147154
#	159134
#	174444
#
# Disc length: 2587 seconds
#
# Revision: 3
# Processed by: cddbd v1.5.2PL0 Copyright (c) Steve Scherf et al.
# Submitted via: audiograbber 1.83.01
#
DISCID=830a190c
DTITLE=Clay Walker - Fall
DYEAR=2007
DGENRE=Country
TTITLE0='Fore She Was Mama
TTITLE1=Fall
TTITLE2=Workin' Man
TTITLE3=Miami And Me
TTITLE4=She Likes It In The Morning
TTITLE5=Mexico
TTITLE6=You're My Witness
TTITLE7=Average Joe
TTITLE8=It Ain't Pretty (But It's Beautiful)
TTITLE9=Before The Next Teardrop Falls w Freddy Fender
TTITLE10=I'd Love To Be Your Last
TTITLE11=I Hate Nights Like This
EXTD=YEAR: 2007
EXTT0=
EXTT1=
EXTT2=
EXTT3=
EXTT4=
EXTT5=
EXTT6=
EXTT7=
EXTT8=
EXTT9=
EXTT10=
EXTT11=
PLAYORDER=
